<svg width="24" height="25" viewBox="0 0 24 25" fill="none" xmlns="http://www.w3.org/2000/svg">
<path d="M23.4219 11.4866H22.2744V14.9141H23.4219V11.4866Z" fill="#F5ECDB"/>
<path d="M22.2745 14.9141H21.1345V16.0541H22.2745V14.9141Z" fill="#F5ECDB"/>
<path d="M22.2745 10.3467H21.1345V11.4867H22.2745V10.3467Z" fill="#F5ECDB"/>
<path d="M21.1346 19.4893H19.9946V20.6293H21.1346V19.4893Z" fill="#F5ECDB"/>
<path d="M21.1346 12.6267H19.9946V13.7742H21.1346V12.6267Z" fill="#F5ECDB"/>
<path d="M21.1345 9.19922H17.707V10.3467H21.1345V9.19922Z" fill="#F5ECDB"/>
<path d="M19.9944 20.6292H18.8469V21.7692H19.9944V20.6292Z" fill="#F5ECDB"/>
<path d="M19.9944 18.3418H18.8469V19.4893H19.9944V18.3418Z" fill="#F5ECDB"/>
<path d="M17.7068 16.0542V17.2017H16.5593V18.3417H18.8468V17.2017H21.1343V16.0542H17.7068Z" fill="#F5ECDB"/>
<path d="M17.707 11.4866V14.9141H19.9945V13.7741H18.847V12.6266H19.9945V11.4866H17.707Z" fill="#F5ECDB"/>
<path d="M18.8468 21.769H16.5593V22.9165H18.8468V21.769Z" fill="#F5ECDB"/>
<path d="M17.7068 8.05908H16.5593V9.19908H17.7068V8.05908Z" fill="#F5ECDB"/>
<path d="M16.5595 18.3418H14.2795V19.4893H16.5595V18.3418Z" fill="#F5ECDB"/>
<path d="M16.5596 6.91162H13.1321V8.05912H16.5596V6.91162Z" fill="#F5ECDB"/>
<path d="M16.5597 22.9165H5.13721V24.0565H16.5597V22.9165Z" fill="#F5ECDB"/>
<path d="M6.27721 9.19922V10.3467H5.13721V11.4867H6.27721V12.6267H15.4197V11.4867H16.5597V10.3467H15.4197V9.19922H6.27721Z" fill="#F5ECDB"/>
<path d="M15.4195 1.19678H14.2795V3.48428H15.4195V1.19678Z" fill="#F5ECDB"/>
<path d="M14.2794 0.0566406H11.9919V1.19664H14.2794V0.0566406Z" fill="#F5ECDB"/>
<path d="M14.2796 3.48413H13.1321V4.63163H14.2796V3.48413Z" fill="#F5ECDB"/>
<path d="M11.992 1.19678H10.8445V2.34428H11.992V1.19678Z" fill="#F5ECDB"/>
<path d="M11.992 5.77148H10.8445V8.05898H11.992V5.77148Z" fill="#F5ECDB"/>
<path d="M10.8447 0.0566406H8.5647V1.19664H10.8447V0.0566406Z" fill="#F5ECDB"/>
<path d="M10.8446 4.63159H9.70459V5.77159H10.8446V4.63159Z" fill="#F5ECDB"/>
<path d="M9.7047 3.48413H8.5647V4.63163H9.7047V3.48413Z" fill="#F5ECDB"/>
<path d="M14.2795 19.4893H7.41699V20.6293H14.2795V19.4893Z" fill="#F5ECDB"/>
<path d="M8.56449 1.19678H7.41699V3.48428H8.56449V1.19678Z" fill="#F5ECDB"/>
<path d="M9.70471 6.91162H5.13721V8.05912H9.70471V6.91162Z" fill="#F5ECDB"/>
<path d="M7.41721 18.3418H5.13721V19.4893H7.41721V18.3418Z" fill="#F5ECDB"/>
<path d="M5.13711 21.769H2.84961V22.9165H5.13711V21.769Z" fill="#F5ECDB"/>
<path d="M5.13711 16.0542H3.98961V17.2017H2.84961V18.3417H5.13711V16.0542Z" fill="#F5ECDB"/>
<path d="M5.137 8.05908H3.9895V9.19908H5.137V8.05908Z" fill="#F5ECDB"/>
<path d="M3.98961 9.19922H2.84961V16.0542H3.98961V9.19922Z" fill="#F5ECDB"/>
<path d="M2.8494 20.6292H1.7019V21.7692H2.8494V20.6292Z" fill="#F5ECDB"/>
<path d="M2.8494 18.3418H1.7019V19.4893H2.8494V18.3418Z" fill="#F5ECDB"/>
<path d="M1.70201 19.4893H0.562012V20.6293H1.70201V19.4893Z" fill="#F5ECDB"/>
</svg>
