<svg width="81" height="81" viewBox="0 0 81 81" fill="none" xmlns="http://www.w3.org/2000/svg">
<g clip-path="url(#clip0_52_11605)">
<path d="M80.562 45.9326H76.762V49.7576H80.562V45.9326Z" fill="#D9B49A"/>
<path d="M76.762 42.1328H69.137V45.9328H76.762V42.1328Z" fill="#D9B49A"/>
<path d="M72.937 34.5078H69.137V38.3328H72.937V34.5078Z" fill="#D9B49A"/>
<path d="M57.712 38.3327V30.7077H53.912V26.8827H50.087V19.2827H53.912V15.4577H69.137V19.2827H72.937V34.5077H76.762V11.6577H72.937V7.83271H69.137V4.03271H53.912V7.83271H50.087V11.6577H46.287V23.0827H34.862V11.6577H31.037V7.83271H27.237V4.03271H11.987V7.83271H8.18702V11.6577H4.38702V34.5077H8.18702V19.2827H11.987V15.4577H27.237V19.2827H31.037V26.8827H27.237V30.7077H23.437V38.3327H11.987V42.1327H23.437V57.3577H27.237V38.3327H31.037V34.5077H50.087V38.3327H53.912V57.3577H57.712V42.1327H69.137V38.3327H57.712Z" fill="#D9B49A"/>
<path d="M65.337 72.6079H61.512V76.4079H65.337V72.6079Z" fill="#D9B49A"/>
<path d="M61.512 68.8076H57.712V72.6076H61.512V68.8076Z" fill="#D9B49A"/>
<path d="M57.712 64.9829H50.087V68.8079H57.712V64.9829Z" fill="#D9B49A"/>
<path d="M53.912 57.3579H50.087V61.1829H53.912V57.3579Z" fill="#D9B49A"/>
<path d="M50.087 42.1328H46.287V49.7578H50.087V42.1328Z" fill="#D9B49A"/>
<path d="M50.087 61.1826H31.037V64.9826H50.087V61.1826Z" fill="#D9B49A"/>
<path d="M46.287 53.5576H34.862V57.3576H46.287V53.5576Z" fill="#D9B49A"/>
<path d="M34.862 42.1328H31.037V49.7578H34.862V42.1328Z" fill="#D9B49A"/>
<path d="M31.037 57.3579H27.237V61.1829H31.037V57.3579Z" fill="#D9B49A"/>
<path d="M31.037 64.9829H23.437V68.8079H31.037V64.9829Z" fill="#D9B49A"/>
<path d="M23.437 68.8076H19.612V72.6076H23.437V68.8076Z" fill="#D9B49A"/>
<path d="M19.612 72.6079H15.812V76.4079H19.612V72.6079Z" fill="#D9B49A"/>
<path d="M11.987 34.5078H8.18701V38.3328H11.987V34.5078Z" fill="#D9B49A"/>
<path d="M11.987 42.1328H4.38702V45.9328H11.987V42.1328Z" fill="#D9B49A"/>
<path d="M4.38701 45.9326H0.562012V49.7576H4.38701V45.9326Z" fill="#D9B49A"/>
</g>
<defs>
<clipPath id="clip0_52_11605">
<rect width="80" height="80" fill="white" transform="translate(0.562012 0.220215)"/>
</clipPath>
</defs>
</svg>
