<svg width="81" height="81" viewBox="0 0 81 81" fill="none" xmlns="http://www.w3.org/2000/svg">
<path d="M55.312 38.4572V42.2572H47.687V46.0822H24.837V49.8822H36.262V53.6822H40.062V57.5072H43.887V61.3072H59.112V65.1072H62.937V68.9322H66.737V72.7322H70.537V57.5072H74.362V53.6822H78.162V38.4572H74.362V34.6322H70.537V30.8322H62.937V19.4072H59.112V38.4572H55.312Z" fill="#D9B49A"/>
<path d="M59.112 15.5825H55.312V19.4075H59.112V15.5825Z" fill="#D9B49A"/>
<path d="M51.487 27.0322H43.887V34.6322H51.487V27.0322Z" fill="#D9B49A"/>
<path d="M55.312 11.7822H47.687V15.5822H55.312V11.7822Z" fill="#D9B49A"/>
<path d="M36.262 27.0322H28.637V34.6322H36.262V27.0322Z" fill="#D9B49A"/>
<path d="M24.837 49.8823H21.012V53.6823H24.837V49.8823Z" fill="#D9B49A"/>
<path d="M47.687 7.98242H17.212V11.7824H47.687V7.98242Z" fill="#D9B49A"/>
<path d="M17.212 46.0825H13.412V61.3075H17.212V57.5075H21.012V53.6825H17.212V46.0825Z" fill="#D9B49A"/>
<path d="M21.012 27.0322H13.412V34.6322H21.012V27.0322Z" fill="#D9B49A"/>
<path d="M17.212 11.7822H9.58701V15.5822H17.212V11.7822Z" fill="#D9B49A"/>
<path d="M13.412 42.2573H9.58701V46.0823H13.412V42.2573Z" fill="#D9B49A"/>
<path d="M9.587 38.4575H5.787V42.2575H9.587V38.4575Z" fill="#D9B49A"/>
<path d="M9.587 15.5825H5.787V19.4075H9.587V15.5825Z" fill="#D9B49A"/>
<path d="M5.78701 19.4072H1.96201V38.4572H5.78701V19.4072Z" fill="#D9B49A"/>
</svg>
