<svg width="81" height="81" viewBox="0 0 81 81" fill="none" xmlns="http://www.w3.org/2000/svg">
<path d="M78.6495 33.0303H74.8495V48.2553H78.6495V33.0303Z" fill="#D9B49A"/>
<path d="M25.3245 33.0303H29.1245V29.2053H32.9495V25.4053H48.1745V29.2053H51.9995V25.4053H63.4245V29.2053H67.2245V59.6803H71.0495V52.0803H74.8495V48.2553H71.0495V33.0303H74.8495V29.2053H71.0495V13.9803H67.2245V17.7803H63.4245V13.9803H55.7995V10.1553H29.1245V13.9803H25.3245V17.7803H21.5245V25.4053H17.6995V13.9803H13.8995V25.4053H10.0995V29.2053H25.3245V33.0303Z" fill="#D9B49A"/>
<path d="M67.2245 59.6802H63.4245V63.5052H67.2245V59.6802Z" fill="#D9B49A"/>
<path d="M67.2245 10.1553H63.4245V13.9803H67.2245V10.1553Z" fill="#D9B49A"/>
<path d="M63.4245 52.0801H59.5995V55.8801H63.4245V52.0801Z" fill="#D9B49A"/>
<path d="M63.4245 40.6304H59.5995V48.2554H63.4245V40.6304Z" fill="#D9B49A"/>
<path d="M63.825 6H60V9.8H63.825V6Z" fill="#D9B49A"/>
<path d="M29.1245 63.5054V71.1429H21.5245V74.9429H13.8995V78.7429H74.8495V74.9429H67.2245V71.1429H59.5995V67.3179H63.4245V63.5179L29.1245 63.5054ZM55.7995 74.9304H40.5745V71.1429H32.9495V67.3179H55.812L55.7995 74.9304Z" fill="#D9B49A"/>
<path d="M59.5995 55.8804H48.1745V59.6804H59.5995V55.8804Z" fill="#D9B49A"/>
<path d="M48.1745 52.0801H44.3745V55.8801H48.1745V52.0801Z" fill="#D9B49A"/>
<path d="M44.3745 40.6304H40.5745V48.2554H44.3745V40.6304Z" fill="#D9B49A"/>
<path d="M48.1745 29.2051H40.5745V33.0301H48.1745V29.2051Z" fill="#D9B49A"/>
<path d="M32.9495 33.0303H29.1245V48.2553H32.9495V33.0303Z" fill="#D9B49A"/>
<path d="M59.5995 2.55518H25.3245V6.35518H59.5995V2.55518Z" fill="#D9B49A"/>
<path d="M29.1245 59.6802H25.3245V63.5052H29.1245V59.6802Z" fill="#D9B49A"/>
<path d="M29.1245 48.2554H25.3245V52.0804H29.1245V48.2554Z" fill="#D9B49A"/>
<path d="M10.0995 52.0801V55.8801H21.5245V59.6801H25.3245V52.0801H10.0995Z" fill="#D9B49A"/>
<path d="M25.3245 6.35498H21.5245V10.155H25.3245V6.35498Z" fill="#D9B49A"/>
<path d="M21.5245 10.1553H17.6995V13.9803H21.5245V10.1553Z" fill="#D9B49A"/>
<path d="M17.6995 33.0303H13.8995V36.8303H17.6995V33.0303Z" fill="#D9B49A"/>
<path d="M13.8995 36.8301H10.0995V44.4551H13.8995V36.8301Z" fill="#D9B49A"/>
<path d="M10.0995 48.2554H6.27448V52.0804H10.0995V48.2554Z" fill="#D9B49A"/>
<path d="M10.0995 29.2051H6.27448V33.0301H10.0995V29.2051Z" fill="#D9B49A"/>
<path d="M6.27449 33.0303H2.47449V48.2553H6.27449V33.0303Z" fill="#D9B49A"/>
</svg>
