<svg width="18" height="20" viewBox="0 0 18 20" fill="none" xmlns="http://www.w3.org/2000/svg">
<path d="M11.4313 12.3811H9.53125V13.3311H8.575V12.3811H6.66875V13.3311H5.71875V15.2374H6.66875V16.1874H7.625V17.1436H8.575V18.0936H9.53125V17.1436H10.4812V16.1874H11.4313V15.2374H12.3875V13.3311H11.4313V12.3811Z" fill="#F5ECDB"/>
<path d="M17.1499 6.6626H16.1936V14.2813H17.1499V6.6626Z" fill="#F5ECDB"/>
<path d="M16.1939 14.2815H15.2439V16.1877H16.1939V14.2815Z" fill="#F5ECDB"/>
<path d="M16.1939 5.7124H15.2439V6.6624H16.1939V5.7124Z" fill="#F5ECDB"/>
<path d="M15.2438 16.1873H14.2876V17.1435H15.2438V16.1873Z" fill="#F5ECDB"/>
<path d="M15.2438 4.76245H14.2876V5.71245H15.2438V4.76245Z" fill="#F5ECDB"/>
<path d="M14.2875 17.144H13.3375V18.094H14.2875V17.144Z" fill="#F5ECDB"/>
<path d="M14.2875 3.80615H13.3375V4.7624H14.2875V3.80615Z" fill="#F5ECDB"/>
<path d="M13.3375 18.094H12.3875V19.044H13.3375V18.094Z" fill="#F5ECDB"/>
<path d="M13.3375 2.85596H12.3875V3.80596H13.3375V2.85596Z" fill="#F5ECDB"/>
<path d="M12.3874 1.90015H11.4312V2.8564H12.3874V1.90015Z" fill="#F5ECDB"/>
<path d="M12.3873 19.0437H4.76855V20H12.3873V19.0437Z" fill="#F5ECDB"/>
<path d="M11.4314 0.950195H9.53137V1.9002H11.4314V0.950195Z" fill="#F5ECDB"/>
<path d="M8.575 5.7124H7.625V9.51865H8.575V5.7124Z" fill="#F5ECDB"/>
<path d="M7.62507 2.85596H6.66882V5.71221H7.62507V2.85596Z" fill="#F5ECDB"/>
<path d="M6.66875 1.90015H5.71875V2.8564H6.66875V1.90015Z" fill="#F5ECDB"/>
<path d="M9.53113 0.95V0H3.81238V0.95H4.76863V1.9H5.71863V0.95H9.53113Z" fill="#F5ECDB"/>
<path d="M7.6248 9.51855H4.76855V10.4748H7.6248V9.51855Z" fill="#F5ECDB"/>
<path d="M4.76863 18.094H3.81238V19.044H4.76863V18.094Z" fill="#F5ECDB"/>
<path d="M4.76863 8.5686H3.81238V9.5186H4.76863V8.5686Z" fill="#F5ECDB"/>
<path d="M3.81211 17.144H1.91211V18.094H3.81211V17.144Z" fill="#F5ECDB"/>
<path d="M3.81211 6.6626H2.86211V7.61885H1.91211V8.56885H3.81211V6.6626Z" fill="#F5ECDB"/>
<path d="M1.91255 16.1873H0.956299V17.1435H1.91255V16.1873Z" fill="#F5ECDB"/>
<path d="M1.91255 8.5686H0.956299V11.4249H1.91255V8.5686Z" fill="#F5ECDB"/>
<path d="M0.956225 11.425H0.00622559V16.1875H0.956225V11.425Z" fill="#F5ECDB"/>
</svg>
