<svg width="29" height="28" viewBox="0 0 29 28" fill="none" xmlns="http://www.w3.org/2000/svg">
<rect x="0.578125" width="28" height="28" rx="14" fill="#ED612C"/>
<path d="M17.4313 16.3811H15.5312V17.3311H14.575V16.3811H12.6687V17.3311H11.7188V19.2374H12.6687V20.1874H13.625V21.1436H14.575V22.0936H15.5312V21.1436H16.4812V20.1874H17.4313V19.2374H18.3875V17.3311H17.4313V16.3811Z" fill="#F5ECDB"/>
<path d="M23.1499 10.6626H22.1936V18.2813H23.1499V10.6626Z" fill="#F5ECDB"/>
<path d="M22.1939 18.2815H21.2439V20.1877H22.1939V18.2815Z" fill="#F5ECDB"/>
<path d="M22.1939 9.7124H21.2439V10.6624H22.1939V9.7124Z" fill="#F5ECDB"/>
<path d="M21.2438 20.1873H20.2876V21.1435H21.2438V20.1873Z" fill="#F5ECDB"/>
<path d="M21.2438 8.76245H20.2876V9.71245H21.2438V8.76245Z" fill="#F5ECDB"/>
<path d="M20.2875 21.144H19.3375V22.094H20.2875V21.144Z" fill="#F5ECDB"/>
<path d="M20.2875 7.80615H19.3375V8.7624H20.2875V7.80615Z" fill="#F5ECDB"/>
<path d="M19.3375 22.094H18.3875V23.044H19.3375V22.094Z" fill="#F5ECDB"/>
<path d="M19.3375 6.85596H18.3875V7.80596H19.3375V6.85596Z" fill="#F5ECDB"/>
<path d="M18.3874 5.90015H17.4312V6.8564H18.3874V5.90015Z" fill="#F5ECDB"/>
<path d="M18.3873 23.0437H10.7686V24H18.3873V23.0437Z" fill="#F5ECDB"/>
<path d="M17.4314 4.9502H15.5314V5.9002H17.4314V4.9502Z" fill="#F5ECDB"/>
<path d="M14.575 9.7124H13.625V13.5187H14.575V9.7124Z" fill="#F5ECDB"/>
<path d="M13.6251 6.85596H12.6688V9.71221H13.6251V6.85596Z" fill="#F5ECDB"/>
<path d="M12.6687 5.90015H11.7188V6.8564H12.6687V5.90015Z" fill="#F5ECDB"/>
<path d="M15.5311 4.95V4H9.81238V4.95H10.7686V5.9H11.7186V4.95H15.5311Z" fill="#F5ECDB"/>
<path d="M13.6248 13.5186H10.7686V14.4748H13.6248V13.5186Z" fill="#F5ECDB"/>
<path d="M10.7686 22.094H9.81238V23.044H10.7686V22.094Z" fill="#F5ECDB"/>
<path d="M10.7686 12.5686H9.81238V13.5186H10.7686V12.5686Z" fill="#F5ECDB"/>
<path d="M9.81211 21.144H7.91211V22.094H9.81211V21.144Z" fill="#F5ECDB"/>
<path d="M9.81211 10.6626H8.86211V11.6188H7.91211V12.5688H9.81211V10.6626Z" fill="#F5ECDB"/>
<path d="M7.91255 20.1873H6.9563V21.1435H7.91255V20.1873Z" fill="#F5ECDB"/>
<path d="M7.91255 12.5686H6.9563V15.4249H7.91255V12.5686Z" fill="#F5ECDB"/>
<path d="M6.95623 15.425H6.00623V20.1875H6.95623V15.425Z" fill="#F5ECDB"/>
</svg>
