<svg width="33" height="30" viewBox="0 0 33 30" fill="none" xmlns="http://www.w3.org/2000/svg">
<path d="M32.062 17.0049H30.542V18.5349H32.062V17.0049Z" fill="black"/>
<path d="M30.542 15.4854H27.492V17.0054H30.542V15.4854Z" fill="black"/>
<path d="M29.012 12.4351H27.492V13.9651H29.012V12.4351Z" fill="black"/>
<path d="M22.922 13.9651V10.9151H21.402V9.38512H19.872V6.34512H21.402V4.81512H27.492V6.34512H29.012V12.4351H30.542V3.29512H29.012V1.76512H27.492V0.245117H21.402V1.76512H19.872V3.29512H18.352V7.86512H13.782V3.29512H12.252V1.76512H10.732V0.245117H4.63204V1.76512H3.11204V3.29512H1.59204V12.4351H3.11204V6.34512H4.63204V4.81512H10.732V6.34512H12.252V9.38512H10.732V10.9151H9.21204V13.9651H4.63204V15.4851H9.21204V21.5751H10.732V13.9651H12.252V12.4351H19.872V13.9651H21.402V21.5751H22.922V15.4851H27.492V13.9651H22.922Z" fill="black"/>
<path d="M25.972 27.6753H24.442V29.1953H25.972V27.6753Z" fill="black"/>
<path d="M24.442 26.1553H22.922V27.6753H24.442V26.1553Z" fill="black"/>
<path d="M22.922 24.625H19.872V26.155H22.922V24.625Z" fill="black"/>
<path d="M21.402 21.5752H19.872V23.1052H21.402V21.5752Z" fill="black"/>
<path d="M19.872 15.4854H18.352V18.5354H19.872V15.4854Z" fill="black"/>
<path d="M19.872 23.105H12.252V24.625H19.872V23.105Z" fill="black"/>
<path d="M18.352 20.0552H13.782V21.5752H18.352V20.0552Z" fill="black"/>
<path d="M13.782 15.4854H12.252V18.5354H13.782V15.4854Z" fill="black"/>
<path d="M12.252 21.5752H10.732V23.1052H12.252V21.5752Z" fill="black"/>
<path d="M12.252 24.625H9.21204V26.155H12.252V24.625Z" fill="black"/>
<path d="M9.21201 26.1553H7.68201V27.6753H9.21201V26.1553Z" fill="black"/>
<path d="M7.68199 27.6753H6.16199V29.1953H7.68199V27.6753Z" fill="black"/>
<path d="M4.632 12.4351H3.112V13.9651H4.632V12.4351Z" fill="black"/>
<path d="M4.63204 15.4854H1.59204V17.0054H4.63204V15.4854Z" fill="black"/>
<path d="M1.59201 17.0049H0.0620117V18.5349H1.59201V17.0049Z" fill="black"/>
</svg>
