<svg width="21" height="16" viewBox="0 0 21 16" fill="none" xmlns="http://www.w3.org/2000/svg">
<path d="M20.5781 3.23755H19.6218V8.00005H20.5781V3.23755Z" fill="#000001"/>
<path d="M19.6219 8H18.6719V9.90625H19.6219V8Z" fill="#000001"/>
<path d="M19.6219 2.2876H18.6719V3.2376H19.6219V2.2876Z" fill="#000001"/>
<path d="M18.6719 9.90625H17.7219V10.8563H18.6719V9.90625Z" fill="#000001"/>
<path d="M18.6719 4.1875H17.7219V6.09375H18.6719V4.1875Z" fill="#000001"/>
<path d="M18.6719 1.3313H17.7219V2.28755H18.6719V1.3313Z" fill="#000001"/>
<path d="M17.7219 3.23755H16.7656V4.18755H17.7219V3.23755Z" fill="#000001"/>
<path d="M17.7219 10.8564H15.8157V11.8064H17.7219V10.8564Z" fill="#000001"/>
<path d="M16.7656 2.2876H14.8594V3.2376H16.7656V2.2876Z" fill="#000001"/>
<path d="M15.8157 11.8064H13.9094V12.7626H15.8157V11.8064Z" fill="#000001"/>
<path d="M17.7219 0.381348H12.9594V1.33135H17.7219V0.381348Z" fill="#000001"/>
<path d="M13.9094 12.7627H12.0032V13.7127H13.9094V12.7627Z" fill="#000001"/>
<path d="M12.9594 1.3313H12.0032V2.28755H12.9594V1.3313Z" fill="#000001"/>
<path d="M12.0031 13.7126H11.0531V14.6626H12.0031V13.7126Z" fill="#000001"/>
<path d="M12.0031 2.2876H11.0531V3.2376H12.0031V2.2876Z" fill="#000001"/>
<path d="M11.0531 14.6626H10.1031V15.6188H11.0531V14.6626Z" fill="#000001"/>
<path d="M11.0531 3.23755H10.1031V4.18755H11.0531V3.23755Z" fill="#000001"/>
<path d="M10.1031 13.7126H9.14685V14.6626H10.1031V13.7126Z" fill="#000001"/>
<path d="M10.1031 2.2876H9.14685V3.2376H10.1031V2.2876Z" fill="#000001"/>
<path d="M9.14685 12.7627H7.2406V13.7127H9.14685V12.7627Z" fill="#000001"/>
<path d="M9.1469 1.3313H8.1969V2.28755H9.1469V1.3313Z" fill="#000001"/>
<path d="M7.24058 11.8064H5.34058V12.7626H7.24058V11.8064Z" fill="#000001"/>
<path d="M5.34058 10.8564H3.43433V11.8064H5.34058V10.8564Z" fill="#000001"/>
<path d="M8.19683 0.381348H3.43433V1.33135H8.19683V0.381348Z" fill="#000001"/>
<path d="M3.43438 9.90625H2.48438V10.8563H3.43438V9.90625Z" fill="#000001"/>
<path d="M3.43438 1.3313H2.48438V2.28755H3.43438V1.3313Z" fill="#000001"/>
<path d="M2.48433 8H1.52808V9.90625H2.48433V8Z" fill="#000001"/>
<path d="M2.48433 2.2876H1.52808V3.2376H2.48433V2.2876Z" fill="#000001"/>
<path d="M1.52812 3.23755H0.578125V8.00005H1.52812V3.23755Z" fill="#000001"/>
</svg>
