<svg width="29" height="28" viewBox="0 0 29 28" fill="none" xmlns="http://www.w3.org/2000/svg">
<rect x="0.578125" width="28" height="28" rx="14" fill="#FF908A"/>
<g clip-path="url(#clip0_52_5997)">
<path d="M24.5781 9.23755H23.6218V14H24.5781V9.23755Z" fill="#000001"/>
<path d="M23.6219 14H22.6719V15.9062H23.6219V14Z" fill="#000001"/>
<path d="M23.6219 8.2876H22.6719V9.2376H23.6219V8.2876Z" fill="#000001"/>
<path d="M22.6719 15.9062H21.7219V16.8563H22.6719V15.9062Z" fill="#000001"/>
<path d="M22.6719 10.1875H21.7219V12.0938H22.6719V10.1875Z" fill="#000001"/>
<path d="M22.6719 7.3313H21.7219V8.28755H22.6719V7.3313Z" fill="#000001"/>
<path d="M21.7219 9.23755H20.7656V10.1875H21.7219V9.23755Z" fill="#000001"/>
<path d="M21.7219 16.8564H19.8157V17.8064H21.7219V16.8564Z" fill="#000001"/>
<path d="M20.7656 8.2876H18.8594V9.2376H20.7656V8.2876Z" fill="#000001"/>
<path d="M19.8157 17.8064H17.9094V18.7626H19.8157V17.8064Z" fill="#000001"/>
<path d="M21.7219 6.38135H16.9594V7.33135H21.7219V6.38135Z" fill="#000001"/>
<path d="M17.9094 18.7627H16.0032V19.7127H17.9094V18.7627Z" fill="#000001"/>
<path d="M16.9594 7.3313H16.0032V8.28755H16.9594V7.3313Z" fill="#000001"/>
<path d="M16.0031 19.7126H15.0531V20.6626H16.0031V19.7126Z" fill="#000001"/>
<path d="M16.0031 8.2876H15.0531V9.2376H16.0031V8.2876Z" fill="#000001"/>
<path d="M15.0531 20.6626H14.1031V21.6188H15.0531V20.6626Z" fill="#000001"/>
<path d="M15.0531 9.23755H14.1031V10.1875H15.0531V9.23755Z" fill="#000001"/>
<path d="M14.1031 19.7126H13.1469V20.6626H14.1031V19.7126Z" fill="#000001"/>
<path d="M14.1031 8.2876H13.1469V9.2376H14.1031V8.2876Z" fill="#000001"/>
<path d="M13.1469 18.7627H11.2406V19.7127H13.1469V18.7627Z" fill="#000001"/>
<path d="M13.1469 7.3313H12.1969V8.28755H13.1469V7.3313Z" fill="#000001"/>
<path d="M11.2406 17.8064H9.34058V18.7626H11.2406V17.8064Z" fill="#000001"/>
<path d="M9.34058 16.8564H7.43433V17.8064H9.34058V16.8564Z" fill="#000001"/>
<path d="M12.1968 6.38135H7.43433V7.33135H12.1968V6.38135Z" fill="#000001"/>
<path d="M7.43438 15.9062H6.48438V16.8563H7.43438V15.9062Z" fill="#000001"/>
<path d="M7.43438 7.3313H6.48438V8.28755H7.43438V7.3313Z" fill="#000001"/>
<path d="M6.48433 14H5.52808V15.9062H6.48433V14Z" fill="#000001"/>
<path d="M6.48433 8.2876H5.52808V9.2376H6.48433V8.2876Z" fill="#000001"/>
<path d="M5.52812 9.23755H4.57812V14H5.52812V9.23755Z" fill="#000001"/>
</g>
<defs>
<clipPath id="clip0_52_5997">
<rect width="20" height="20" fill="white" transform="translate(4.57812 4)"/>
</clipPath>
</defs>
</svg>
