<svg width="29" height="28" viewBox="0 0 29 28" fill="none" xmlns="http://www.w3.org/2000/svg">
<rect x="0.578125" width="28" height="28" rx="14" fill="#1C8BB8"/>
<path d="M12.0806 9.99927H11.0763V10.997H12.0806V9.99927Z" fill="#F5ECDB"/>
<path d="M10.0786 22.0079V12.0013H11.0763V10.9971H10.0786V9.99609H6.07471V23.9967H10.0786V22.999H12.0839V22.0079H10.0786ZM9.07438 14H8.07996V12.0046H9.07766L9.07438 14Z" fill="#F5ECDB"/>
<path d="M13.0783 9.00171H12.0806V9.99941H13.0783V9.00171Z" fill="#F5ECDB"/>
<path d="M14.0759 4.9978H13.0782V9.00174H14.0759V4.9978Z" fill="#F5ECDB"/>
<path d="M15.0803 12.0012H14.076V12.9989H15.0803V12.0012Z" fill="#F5ECDB"/>
<path d="M16.078 4H14.076V4.9977H16.078V4Z" fill="#F5ECDB"/>
<path d="M16.0779 10.9971H15.0802V12.0013H16.0779V10.9971Z" fill="#F5ECDB"/>
<path d="M16.0779 15.001H15.0802V17.0029H16.0779V15.001Z" fill="#F5ECDB"/>
<path d="M16.0779 18.0007H15.0802V20.0027H16.0779V18.0007Z" fill="#F5ECDB"/>
<path d="M17.0757 4.9978H16.078V5.99551H17.0757V4.9978Z" fill="#F5ECDB"/>
<path d="M17.0757 9.99927H16.078V10.997H17.0757V9.99927Z" fill="#F5ECDB"/>
<path d="M18.0799 5.99536H17.0757V9.9993H18.0799V5.99536Z" fill="#F5ECDB"/>
<path d="M22.0773 10.9971H17.0757V12.0013H22.0773V10.9971Z" fill="#F5ECDB"/>
<path d="M18.0799 22.0046H17.0756V23.0023H12.0806V24H20.0819V23.0023H18.0799V22.0046Z" fill="#F5ECDB"/>
<path d="M16.078 20.0027V22.0047H17.0757V21.0004H21.0796V22.0047H22.0773V20.0027H16.078Z" fill="#F5ECDB"/>
<path d="M21.0796 22.0046H20.0819V23.0023H21.0796V22.0046Z" fill="#F5ECDB"/>
<path d="M22.0773 13.9966H17.0757V12.0012H16.078V15.0009H22.0773V17.0029H16.078V18.0006H22.0773V20.0025H23.0816V12.0012H22.0773V13.9966Z" fill="#F5ECDB"/>
</svg>
