<svg width="18" height="20" viewBox="0 0 18 20" fill="none" xmlns="http://www.w3.org/2000/svg">
<path d="M6.08056 5.99927H5.07629V6.99697H6.08056V5.99927Z" fill="#F5ECDB"/>
<path d="M4.07865 18.0079V8.00135H5.07635V6.99708H4.07865V5.99609H0.074707V19.9967H4.07865V18.999H6.0839V18.0079H4.07865ZM3.07438 10H2.07996V8.00463H3.07766L3.07438 10Z" fill="#F5ECDB"/>
<path d="M7.07827 5.00171H6.08057V5.99941H7.07827V5.00171Z" fill="#F5ECDB"/>
<path d="M8.07595 0.997803H7.07825V5.00174H8.07595V0.997803Z" fill="#F5ECDB"/>
<path d="M9.08032 8.00122H8.07605V8.99892H9.08032V8.00122Z" fill="#F5ECDB"/>
<path d="M10.078 0H8.07605V0.997703H10.078V0Z" fill="#F5ECDB"/>
<path d="M10.0779 6.99707H9.0802V8.00134H10.0779V6.99707Z" fill="#F5ECDB"/>
<path d="M10.0779 11.001H9.0802V13.0029H10.0779V11.001Z" fill="#F5ECDB"/>
<path d="M10.0779 14.0007H9.0802V16.0027H10.0779V14.0007Z" fill="#F5ECDB"/>
<path d="M11.0757 0.997803H10.078V1.99551H11.0757V0.997803Z" fill="#F5ECDB"/>
<path d="M11.0757 5.99927H10.078V6.99697H11.0757V5.99927Z" fill="#F5ECDB"/>
<path d="M12.0799 1.99536H11.0757V5.9993H12.0799V1.99536Z" fill="#F5ECDB"/>
<path d="M16.0773 6.99707H11.0757V8.00134H16.0773V6.99707Z" fill="#F5ECDB"/>
<path d="M12.0799 18.0046H11.0756V19.0023H6.08057V20H14.0819V19.0023H12.0799V18.0046Z" fill="#F5ECDB"/>
<path d="M10.078 16.0027V18.0047H11.0757V17.0004H15.0796V18.0047H16.0773V16.0027H10.078Z" fill="#F5ECDB"/>
<path d="M15.0796 18.0046H14.0819V19.0023H15.0796V18.0046Z" fill="#F5ECDB"/>
<path d="M16.0773 9.99663H11.0757V8.00122H10.078V11.0009H16.0773V13.0029H10.078V14.0006H16.0773V16.0025H17.0816V8.00122H16.0773V9.99663Z" fill="#F5ECDB"/>
</svg>
