<svg width="49" height="49" viewBox="0 0 49 49" fill="none" xmlns="http://www.w3.org/2000/svg">
<g clip-path="url(#clip0_52_3658)">
<path d="M38.2956 13.8076V20.6626H29.1456V25.2376H38.2956V32.0926H40.5756V29.8126H42.8706V27.5326H45.1506V25.2376H47.4306V20.6626H45.1506V18.3826H42.8706V16.1026H40.5756V13.8076H38.2956Z" fill="#F5ECDB"/>
<path d="M33.7205 32.0928H31.4406V41.2428H33.7205V32.0928Z" fill="#F5ECDB"/>
<path d="M33.7205 2.37744H31.4406V13.8074H33.7205V2.37744Z" fill="#F5ECDB"/>
<path d="M22.2906 45.8178V43.5228H31.4406V41.2428H22.2906V11.5278H20.0106V45.8178H22.2906Z" fill="#F5ECDB"/>
<path d="M20.0106 45.8179H13.1556V48.0979H20.0106V45.8179Z" fill="#F5ECDB"/>
<path d="M17.7155 25.2378H15.4355V29.8128H17.7155V25.2378Z" fill="#F5ECDB"/>
<path d="M20.0105 9.24756H15.4355V11.5276H20.0105V9.24756Z" fill="#F5ECDB"/>
<path d="M13.1556 43.5225H8.58057V45.8175H13.1556V43.5225Z" fill="#F5ECDB"/>
<path d="M15.4356 6.95264H10.8606V9.24764H15.4356V6.95264Z" fill="#F5ECDB"/>
<path d="M8.58062 41.2427H4.00562V43.5227H8.58062V41.2427Z" fill="#F5ECDB"/>
<path d="M10.8605 4.67285H6.30054V6.95285H10.8605V4.67285Z" fill="#F5ECDB"/>
<path d="M4.00559 0.0976562V2.37766H1.72559V41.2427H4.00559V4.67266H6.30059V2.37766H31.4406V0.0976562H4.00559Z" fill="#F5ECDB"/>
</g>
<defs>
<clipPath id="clip0_52_3658">
<rect width="48" height="48" fill="white" transform="translate(0.578125 0.0976562)"/>
</clipPath>
</defs>
</svg>
