<svg width="33" height="33" viewBox="0 0 33 33" fill="none" xmlns="http://www.w3.org/2000/svg">
<path d="M22.678 15.7401V17.2601H19.628V18.7901H10.488V20.3101H15.058V21.8301H16.578V23.3601H18.108V24.8801H24.198V26.4001H25.728V27.9301H27.248V29.4501H28.768V23.3601H30.298V21.8301H31.818V15.7401H30.298V14.2101H28.768V12.6901H25.728V8.12012H24.198V15.7401H22.678Z" fill="#5A3822"/>
<path d="M24.1982 6.59009H22.6782V8.12009H24.1982V6.59009Z" fill="#5A3822"/>
<path d="M21.1482 11.1702H18.1082V14.2102H21.1482V11.1702Z" fill="#5A3822"/>
<path d="M22.6782 5.07007H19.6282V6.59007H22.6782V5.07007Z" fill="#5A3822"/>
<path d="M15.0581 11.1702H12.0081V14.2102H15.0581V11.1702Z" fill="#5A3822"/>
<path d="M10.4883 20.3101H8.95825V21.8301H10.4883V20.3101Z" fill="#5A3822"/>
<path d="M19.6282 3.55005H7.43823V5.07005H19.6282V3.55005Z" fill="#5A3822"/>
<path d="M7.43821 18.79H5.91821V24.88H7.43821V23.36H8.95821V21.83H7.43821V18.79Z" fill="#5A3822"/>
<path d="M8.95821 11.1702H5.91821V14.2102H8.95821V11.1702Z" fill="#5A3822"/>
<path d="M7.43818 5.07007H4.38818V6.59007H7.43818V5.07007Z" fill="#5A3822"/>
<path d="M5.91818 17.26H4.38818V18.79H5.91818V17.26Z" fill="#5A3822"/>
<path d="M4.38816 15.74H2.86816V17.26H4.38816V15.74Z" fill="#5A3822"/>
<path d="M4.38816 6.59009H2.86816V8.12009H4.38816V6.59009Z" fill="#5A3822"/>
<path d="M2.86813 8.12012H1.33813V15.7401H2.86813V8.12012Z" fill="#5A3822"/>
</svg>
