<svg width="29" height="28" viewBox="0 0 29 28" fill="none" xmlns="http://www.w3.org/2000/svg">
<rect x="0.578125" width="28" height="28.0001" rx="14" fill="#00B88E"/>
<path d="M22.6717 14.4749H21.7217V17.3311H22.6717V14.4749Z" fill="black"/>
<path d="M22.6717 11.6189H21.7217V13.5251H22.6717V11.6189Z" fill="black"/>
<path d="M21.7221 17.3313H20.7659V19.2375H21.7221V17.3313Z" fill="black"/>
<path d="M21.7221 10.6687H20.7659V11.6187H21.7221V10.6687Z" fill="black"/>
<path d="M20.7658 19.2375H19.8158V20.1938H20.7658V19.2375Z" fill="black"/>
<path d="M21.722 13.5251H19.8158V14.4751H21.722V13.5251Z" fill="black"/>
<path d="M20.7658 9.7124H19.8158V10.6687H20.7658V9.7124Z" fill="black"/>
<path d="M18.8596 21.1438H9.34082V20.1938H8.38457V21.1438H7.43457V24.0001H20.7658V21.1438H19.8158V20.1938H18.8596V21.1438ZM18.8596 23.0501H16.9596V22.0938H18.8596V23.0501Z" fill="black"/>
<path d="M19.8159 14.4749H18.8596V16.3811H19.8159V14.4749Z" fill="black"/>
<path d="M19.8159 12.5686H18.8596V13.5249H19.8159V12.5686Z" fill="black"/>
<path d="M18.8594 11.6189H16.9594V12.5689H18.8594V11.6189Z" fill="black"/>
<path d="M18.8594 16.3811H16.0032V17.3311H18.8594V16.3811Z" fill="black"/>
<path d="M19.8157 8.76245H16.0032V9.71245H19.8157V8.76245Z" fill="black"/>
<path d="M16.9594 12.5686H16.0032V13.5249H16.9594V12.5686Z" fill="black"/>
<path d="M16.0035 13.5251H15.0535V16.3814H16.0035V13.5251Z" fill="black"/>
<path d="M16.0035 9.7124H15.0535V10.6687H16.0035V9.7124Z" fill="black"/>
<path d="M13.1471 12.5689H14.1033V11.6189H15.0533V10.6689H14.1033V4.9502H13.1471V12.5689Z" fill="black"/>
<path d="M13.147 12.5686H12.197V14.4749H13.147V12.5686Z" fill="black"/>
<path d="M13.147 4H11.2407V4.95H13.147V4Z" fill="black"/>
<path d="M11.2406 12.5686H10.2906V14.4749H11.2406V12.5686Z" fill="black"/>
<path d="M11.2406 4.9502H10.2906V11.6189H11.2406V4.9502Z" fill="black"/>
<path d="M10.2906 4H9.34058V4.95H10.2906V4Z" fill="black"/>
<path d="M9.34053 13.5251H8.38428V15.4314H9.34053V13.5251Z" fill="black"/>
<path d="M8.38457 12.5689H9.34082V4.9502H8.38457V6.85645H7.43457V7.8127H8.38457V12.5689Z" fill="black"/>
<path d="M8.38457 18.2876H7.43457V20.1938H8.38457V18.2876Z" fill="black"/>
<path d="M7.4345 7.81274H6.4845V18.2877H7.4345V7.81274Z" fill="black"/>
</svg>
