<svg width="17" height="20" viewBox="0 0 17 20" fill="none" xmlns="http://www.w3.org/2000/svg">
<path d="M16.6717 10.4749H15.7217V13.3311H16.6717V10.4749Z" fill="black"/>
<path d="M16.6717 7.6189H15.7217V9.52515H16.6717V7.6189Z" fill="black"/>
<path d="M15.7221 13.3313H14.7659V15.2375H15.7221V13.3313Z" fill="black"/>
<path d="M15.7221 6.6687H14.7659V7.6187H15.7221V6.6687Z" fill="black"/>
<path d="M14.7658 15.2375H13.8158V16.1938H14.7658V15.2375Z" fill="black"/>
<path d="M15.722 9.52515H13.8158V10.4751H15.722V9.52515Z" fill="black"/>
<path d="M14.7658 5.7124H13.8158V6.66865H14.7658V5.7124Z" fill="black"/>
<path d="M12.8596 17.1438H3.34082V16.1938H2.38457V17.1438H1.43457V20.0001H14.7658V17.1438H13.8158V16.1938H12.8596V17.1438ZM12.8596 19.0501H10.9596V18.0938H12.8596V19.0501Z" fill="black"/>
<path d="M13.8159 10.4749H12.8596V12.3811H13.8159V10.4749Z" fill="black"/>
<path d="M13.8159 8.5686H12.8596V9.52485H13.8159V8.5686Z" fill="black"/>
<path d="M12.8594 7.6189H10.9594V8.5689H12.8594V7.6189Z" fill="black"/>
<path d="M12.8594 12.3811H10.0032V13.3311H12.8594V12.3811Z" fill="black"/>
<path d="M13.8157 4.76245H10.0032V5.71245H13.8157V4.76245Z" fill="black"/>
<path d="M10.9594 8.5686H10.0032V9.52485H10.9594V8.5686Z" fill="black"/>
<path d="M10.0035 9.52515H9.05347V12.3814H10.0035V9.52515Z" fill="black"/>
<path d="M10.0035 5.7124H9.05347V6.66865H10.0035V5.7124Z" fill="black"/>
<path d="M7.14709 8.56895H8.10334V7.61895H9.05334V6.66895H8.10334V0.950195H7.14709V8.56895Z" fill="black"/>
<path d="M7.14702 8.5686H6.19702V10.4749H7.14702V8.5686Z" fill="black"/>
<path d="M7.14697 0H5.24072V0.95H7.14697V0Z" fill="black"/>
<path d="M5.24065 8.5686H4.29065V10.4749H5.24065V8.5686Z" fill="black"/>
<path d="M5.24065 0.950195H4.29065V7.61895H5.24065V0.950195Z" fill="black"/>
<path d="M4.29058 0H3.34058V0.95H4.29058V0Z" fill="black"/>
<path d="M3.34053 9.52515H2.38428V11.4314H3.34053V9.52515Z" fill="black"/>
<path d="M2.38457 8.56895H3.34082V0.950195H2.38457V2.85645H1.43457V3.8127H2.38457V8.56895Z" fill="black"/>
<path d="M2.38457 14.2876H1.43457V16.1938H2.38457V14.2876Z" fill="black"/>
<path d="M1.4345 3.81274H0.484497V14.2877H1.4345V3.81274Z" fill="black"/>
</svg>
