<svg width="21" height="21" viewBox="0 0 21 21" fill="none" xmlns="http://www.w3.org/2000/svg">
<path d="M1.01201 8.47607H0.0620117V13.2386H1.01201V8.47607Z" fill="#5A3822"/>
<path d="M1.96827 13.2388H1.01202V15.145H1.96827V13.2388Z" fill="#5A3822"/>
<path d="M1.96827 6.56982H1.01202V8.47607H1.96827V6.56982Z" fill="#5A3822"/>
<path d="M2.91826 15.145H1.96826V17.045H2.91826V15.145Z" fill="#5A3822"/>
<path d="M2.91826 4.66357H1.96826V6.56982H2.91826V4.66357Z" fill="#5A3822"/>
<path d="M3.87452 17.0449H2.91827V18.0012H3.87452V17.0449Z" fill="#5A3822"/>
<path d="M3.87452 3.71387H2.91827V4.66387H3.87452V3.71387Z" fill="#5A3822"/>
<path d="M5.77451 18.001H3.87451V18.951H5.77451V18.001Z" fill="#5A3822"/>
<path d="M15.2995 8.47637H14.3495V7.52637H13.3933V6.57012H12.4433V5.62012H11.4933V7.52637H5.77451V8.47637H4.82451V9.42637H3.87451V14.1889H4.82451V15.1451H6.73076V16.0951H8.63076V15.1451H7.68076V14.1889H6.73076V13.2389H7.68076V12.2889H11.4933V14.1889H12.4433V13.2389H13.3933V12.2889H14.3495V11.3326H15.2995V10.3826H16.2558V9.42637H15.2995V8.47637Z" fill="#5A3822"/>
<path d="M5.77451 2.76367H3.87451V3.71367H5.77451V2.76367Z" fill="#5A3822"/>
<path d="M7.68076 18.9512H5.77451V19.9074H7.68076V18.9512Z" fill="#5A3822"/>
<path d="M7.68076 1.80762H5.77451V2.76387H7.68076V1.80762Z" fill="#5A3822"/>
<path d="M12.4433 19.9072H7.68076V20.8572H12.4433V19.9072Z" fill="#5A3822"/>
<path d="M12.4433 0.857422H7.68076V1.80742H12.4433V0.857422Z" fill="#5A3822"/>
<path d="M14.3495 18.9512H12.4433V19.9074H14.3495V18.9512Z" fill="#5A3822"/>
<path d="M14.3495 1.80762H12.4433V2.76387H14.3495V1.80762Z" fill="#5A3822"/>
<path d="M16.2558 18.001H14.3495V18.951H16.2558V18.001Z" fill="#5A3822"/>
<path d="M16.2558 2.76367H14.3495V3.71367H16.2558V2.76367Z" fill="#5A3822"/>
<path d="M17.2058 17.0449H16.2558V18.0012H17.2058V17.0449Z" fill="#5A3822"/>
<path d="M17.2058 3.71387H16.2558V4.66387H17.2058V3.71387Z" fill="#5A3822"/>
<path d="M18.1557 15.145H17.2057V17.045H18.1557V15.145Z" fill="#5A3822"/>
<path d="M18.1557 4.66357H17.2057V6.56982H18.1557V4.66357Z" fill="#5A3822"/>
<path d="M19.112 13.2388H18.1558V15.145H19.112V13.2388Z" fill="#5A3822"/>
<path d="M19.112 6.56982H18.1558V8.47607H19.112V6.56982Z" fill="#5A3822"/>
<path d="M20.062 8.47607H19.112V13.2386H20.062V8.47607Z" fill="#5A3822"/>
</svg>
