<svg width="19" height="20" viewBox="0 0 19 20" fill="none" xmlns="http://www.w3.org/2000/svg">
<path d="M18.625 4.2876H17.675V12.8563H18.625V4.2876Z" fill="#F5ECDB"/>
<path d="M17.675 12.8564H16.725V13.8064H17.675V12.8564Z" fill="#F5ECDB"/>
<path d="M17.675 3.3313H16.725V4.28755H17.675V3.3313Z" fill="#F5ECDB"/>
<path d="M16.725 13.8064H15.7688V14.7626H16.725V13.8064Z" fill="#F5ECDB"/>
<path d="M16.725 2.38135H15.7688V3.33135H16.725V2.38135Z" fill="#F5ECDB"/>
<path d="M15.7687 14.7627H14.8187V18.5689H15.7687V14.7627Z" fill="#F5ECDB"/>
<path d="M14.8188 8.09375H12.9125V9.04375H11.9625V10.95H12.9125V11.9062H14.8188V10.95H15.7688V9.04375H14.8188V8.09375Z" fill="#F5ECDB"/>
<path d="M15.7688 1.42505H13.8625V2.3813H15.7688V1.42505Z" fill="#F5ECDB"/>
<path d="M14.8188 18.5688H11.9625V19.5251H14.8188V18.5688Z" fill="#F5ECDB"/>
<path d="M11.9625 15.7126H11.0062V18.5689H11.9625V15.7126Z" fill="#F5ECDB"/>
<path d="M11.0063 18.5688H8.15002V19.5251H11.0063V18.5688Z" fill="#F5ECDB"/>
<path d="M11.0063 12.8564H8.15002V13.8064H11.0063V12.8564Z" fill="#F5ECDB"/>
<path d="M8.14995 15.7126H7.19995V18.5689H8.14995V15.7126Z" fill="#F5ECDB"/>
<path d="M13.8625 0.475098H5.2937V1.4251H13.8625V0.475098Z" fill="#F5ECDB"/>
<path d="M7.2 18.5688H4.34375V19.5251H7.2V18.5688Z" fill="#F5ECDB"/>
<path d="M6.2437 8.09375H4.3437V9.04375H3.38745V10.95H4.3437V11.9062H6.2437V10.95H7.19995V9.04375H6.2437V8.09375Z" fill="#F5ECDB"/>
<path d="M5.2937 1.42505H3.38745V2.3813H5.2937V1.42505Z" fill="#F5ECDB"/>
<path d="M4.3437 14.7627H3.38745V18.5689H4.3437V14.7627Z" fill="#F5ECDB"/>
<path d="M3.3875 13.8064H2.4375V14.7626H3.3875V13.8064Z" fill="#F5ECDB"/>
<path d="M3.3875 2.38135H2.4375V3.33135H3.3875V2.38135Z" fill="#F5ECDB"/>
<path d="M2.43755 12.8564H1.48755V13.8064H2.43755V12.8564Z" fill="#F5ECDB"/>
<path d="M2.43755 3.3313H1.48755V4.28755H2.43755V3.3313Z" fill="#F5ECDB"/>
<path d="M1.4875 4.2876H0.53125V12.8563H1.4875V4.2876Z" fill="#F5ECDB"/>
</svg>
