<svg width="29" height="28" viewBox="0 0 29 28" fill="none" xmlns="http://www.w3.org/2000/svg">
<rect x="0.578125" width="28" height="28" rx="14" fill="black"/>
<path d="M23.625 8.2876H22.675V16.8563H23.625V8.2876Z" fill="#F5ECDB"/>
<path d="M22.675 16.8564H21.725V17.8064H22.675V16.8564Z" fill="#F5ECDB"/>
<path d="M22.675 7.3313H21.725V8.28755H22.675V7.3313Z" fill="#F5ECDB"/>
<path d="M21.725 17.8064H20.7688V18.7626H21.725V17.8064Z" fill="#F5ECDB"/>
<path d="M21.725 6.38135H20.7688V7.33135H21.725V6.38135Z" fill="#F5ECDB"/>
<path d="M20.7687 18.7627H19.8187V22.5689H20.7687V18.7627Z" fill="#F5ECDB"/>
<path d="M19.8188 12.0938H17.9125V13.0438H16.9625V14.95H17.9125V15.9062H19.8188V14.95H20.7688V13.0438H19.8188V12.0938Z" fill="#F5ECDB"/>
<path d="M20.7688 5.42505H18.8625V6.3813H20.7688V5.42505Z" fill="#F5ECDB"/>
<path d="M19.8188 22.5688H16.9625V23.5251H19.8188V22.5688Z" fill="#F5ECDB"/>
<path d="M16.9625 19.7126H16.0062V22.5689H16.9625V19.7126Z" fill="#F5ECDB"/>
<path d="M16.0063 22.5688H13.15V23.5251H16.0063V22.5688Z" fill="#F5ECDB"/>
<path d="M16.0063 16.8564H13.15V17.8064H16.0063V16.8564Z" fill="#F5ECDB"/>
<path d="M13.15 19.7126H12.2V22.5689H13.15V19.7126Z" fill="#F5ECDB"/>
<path d="M18.8625 4.4751H10.2937V5.4251H18.8625V4.4751Z" fill="#F5ECDB"/>
<path d="M12.2 22.5688H9.34375V23.5251H12.2V22.5688Z" fill="#F5ECDB"/>
<path d="M11.2437 12.0938H9.3437V13.0438H8.38745V14.95H9.3437V15.9062H11.2437V14.95H12.2V13.0438H11.2437V12.0938Z" fill="#F5ECDB"/>
<path d="M10.2937 5.42505H8.38745V6.3813H10.2937V5.42505Z" fill="#F5ECDB"/>
<path d="M9.3437 18.7627H8.38745V22.5689H9.3437V18.7627Z" fill="#F5ECDB"/>
<path d="M8.3875 17.8064H7.4375V18.7626H8.3875V17.8064Z" fill="#F5ECDB"/>
<path d="M8.3875 6.38135H7.4375V7.33135H8.3875V6.38135Z" fill="#F5ECDB"/>
<path d="M7.43755 16.8564H6.48755V17.8064H7.43755V16.8564Z" fill="#F5ECDB"/>
<path d="M7.43755 7.3313H6.48755V8.28755H7.43755V7.3313Z" fill="#F5ECDB"/>
<path d="M6.4875 8.2876H5.53125V16.8563H6.4875V8.2876Z" fill="#F5ECDB"/>
</svg>
