<svg width="29" height="28" viewBox="0 0 29 28" fill="none" xmlns="http://www.w3.org/2000/svg">
<rect x="0.578125" width="28" height="28" rx="14" fill="#FDCD79"/>
<path d="M24.5781 11.6189H23.6281V12.5689H24.5781V11.6189Z" fill="#000001"/>
<path d="M23.6285 12.5686H22.6722V13.5186H23.6285V12.5686Z" fill="#000001"/>
<path d="M22.672 21.144H21.722V23.044H22.672V21.144Z" fill="#000001"/>
<path d="M21.7218 19.2375H20.7655V21.1438H21.7218V19.2375Z" fill="#000001"/>
<path d="M22.6718 13.5186H20.7655V14.4748H22.6718V13.5186Z" fill="#000001"/>
<path d="M21.722 23.0437H19.8158V24H21.722V23.0437Z" fill="#000001"/>
<path d="M20.7658 17.3313H19.8158V19.2375H20.7658V17.3313Z" fill="#000001"/>
<path d="M20.7658 14.4749H19.8158V15.4249H20.7658V14.4749Z" fill="#000001"/>
<path d="M19.8156 22.094H18.8656V23.044H19.8156V22.094Z" fill="#000001"/>
<path d="M19.8156 15.425H18.8656V17.3313H19.8156V15.425Z" fill="#000001"/>
<path d="M18.8656 21.144H16.9594V22.094H18.8656V21.144Z" fill="#000001"/>
<path d="M23.6282 10.6626H17.9094V11.6188H23.6282V10.6626Z" fill="#000001"/>
<path d="M17.9094 8.76245H16.9594V10.6625H17.9094V8.76245Z" fill="#000001"/>
<path d="M16.9596 20.1873H16.0096V21.1435H16.9596V20.1873Z" fill="#000001"/>
<path d="M16.9596 14.4749H16.0096V15.4249H16.9596V14.4749Z" fill="#000001"/>
<path d="M16.9596 6.85596H16.0096V8.76221H16.9596V6.85596Z" fill="#000001"/>
<path d="M16.0092 19.2375H15.053V20.1875H16.0092V19.2375Z" fill="#000001"/>
<path d="M16.0092 12.5686H15.053V13.5186H16.0092V12.5686Z" fill="#000001"/>
<path d="M16.0092 4.9502H15.053V6.85645H16.0092V4.9502Z" fill="#000001"/>
<path d="M15.0533 18.2815H14.1033V19.2377H15.0533V18.2815Z" fill="#000001"/>
<path d="M16.0091 15.425H13.1466V16.3813H16.0091V15.425Z" fill="#000001"/>
<path d="M15.0533 4H14.1033V4.95H15.0533V4Z" fill="#000001"/>
<path d="M14.1029 19.2375H13.1466V20.1875H14.1029V19.2375Z" fill="#000001"/>
<path d="M14.1029 12.5686H13.1466V13.5186H14.1029V12.5686Z" fill="#000001"/>
<path d="M14.1029 4.9502H13.1466V6.85645H14.1029V4.9502Z" fill="#000001"/>
<path d="M13.1469 20.1873H12.1969V21.1435H13.1469V20.1873Z" fill="#000001"/>
<path d="M13.1469 14.4749H12.1969V15.4249H13.1469V14.4749Z" fill="#000001"/>
<path d="M13.1469 6.85596H12.1969V8.76221H13.1469V6.85596Z" fill="#000001"/>
<path d="M12.1968 8.76245H11.2468V10.6625H12.1968V8.76245Z" fill="#000001"/>
<path d="M12.1969 21.144H10.2906V22.094H12.1969V21.144Z" fill="#000001"/>
<path d="M10.2905 22.094H9.34045V23.044H10.2905V22.094Z" fill="#000001"/>
<path d="M10.2905 15.425H9.34045V17.3313H10.2905V15.425Z" fill="#000001"/>
<path d="M9.34075 17.3313H8.39075V19.2375H9.34075V17.3313Z" fill="#000001"/>
<path d="M9.34075 14.4749H8.39075V15.4249H9.34075V14.4749Z" fill="#000001"/>
<path d="M9.34045 23.0437H7.4342V24H9.34045V23.0437Z" fill="#000001"/>
<path d="M8.39045 19.2375H7.4342V21.1438H8.39045V19.2375Z" fill="#000001"/>
<path d="M8.39026 13.5186H6.48401V14.4748H8.39026V13.5186Z" fill="#000001"/>
<path d="M7.43401 21.144H6.48401V23.044H7.43401V21.144Z" fill="#000001"/>
<path d="M11.2469 10.6626H5.5282V11.6188H11.2469V10.6626Z" fill="#000001"/>
<path d="M6.48445 12.5686H5.5282V13.5186H6.48445V12.5686Z" fill="#000001"/>
<path d="M5.52812 11.6189H4.57812V12.5689H5.52812V11.6189Z" fill="#000001"/>
</svg>
