<svg width="21" height="20" viewBox="0 0 21 20" fill="none" xmlns="http://www.w3.org/2000/svg">
<path d="M20.5781 7.6189H19.6281V8.5689H20.5781V7.6189Z" fill="#000001"/>
<path d="M19.6285 8.5686H18.6722V9.5186H19.6285V8.5686Z" fill="#000001"/>
<path d="M18.672 17.144H17.722V19.044H18.672V17.144Z" fill="#000001"/>
<path d="M17.7218 15.2375H16.7655V17.1438H17.7218V15.2375Z" fill="#000001"/>
<path d="M18.6718 9.51855H16.7655V10.4748H18.6718V9.51855Z" fill="#000001"/>
<path d="M17.722 19.0437H15.8158V20H17.722V19.0437Z" fill="#000001"/>
<path d="M16.7658 13.3313H15.8158V15.2375H16.7658V13.3313Z" fill="#000001"/>
<path d="M16.7658 10.4749H15.8158V11.4249H16.7658V10.4749Z" fill="#000001"/>
<path d="M15.8156 18.094H14.8656V19.044H15.8156V18.094Z" fill="#000001"/>
<path d="M15.8156 11.425H14.8656V13.3313H15.8156V11.425Z" fill="#000001"/>
<path d="M14.8656 17.144H12.9594V18.094H14.8656V17.144Z" fill="#000001"/>
<path d="M19.6282 6.6626H13.9094V7.61885H19.6282V6.6626Z" fill="#000001"/>
<path d="M13.9094 4.76245H12.9594V6.66245H13.9094V4.76245Z" fill="#000001"/>
<path d="M12.9596 16.1873H12.0096V17.1435H12.9596V16.1873Z" fill="#000001"/>
<path d="M12.9596 10.4749H12.0096V11.4249H12.9596V10.4749Z" fill="#000001"/>
<path d="M12.9596 2.85596H12.0096V4.76221H12.9596V2.85596Z" fill="#000001"/>
<path d="M12.0092 15.2375H11.053V16.1875H12.0092V15.2375Z" fill="#000001"/>
<path d="M12.0092 8.5686H11.053V9.5186H12.0092V8.5686Z" fill="#000001"/>
<path d="M12.0092 0.950195H11.053V2.85645H12.0092V0.950195Z" fill="#000001"/>
<path d="M11.0533 14.2815H10.1033V15.2377H11.0533V14.2815Z" fill="#000001"/>
<path d="M12.0091 11.425H9.14661V12.3813H12.0091V11.425Z" fill="#000001"/>
<path d="M11.0533 0H10.1033V0.95H11.0533V0Z" fill="#000001"/>
<path d="M10.1029 15.2375H9.14661V16.1875H10.1029V15.2375Z" fill="#000001"/>
<path d="M10.1029 8.5686H9.14661V9.5186H10.1029V8.5686Z" fill="#000001"/>
<path d="M10.1029 0.950195H9.14661V2.85645H10.1029V0.950195Z" fill="#000001"/>
<path d="M9.1469 16.1873H8.1969V17.1435H9.1469V16.1873Z" fill="#000001"/>
<path d="M9.1469 10.4749H8.1969V11.4249H9.1469V10.4749Z" fill="#000001"/>
<path d="M9.1469 2.85596H8.1969V4.76221H9.1469V2.85596Z" fill="#000001"/>
<path d="M8.19683 4.76245H7.24683V6.66245H8.19683V4.76245Z" fill="#000001"/>
<path d="M8.1969 17.144H6.29065V18.094H8.1969V17.144Z" fill="#000001"/>
<path d="M6.29045 18.094H5.34045V19.044H6.29045V18.094Z" fill="#000001"/>
<path d="M6.29045 11.425H5.34045V13.3313H6.29045V11.425Z" fill="#000001"/>
<path d="M5.34075 13.3313H4.39075V15.2375H5.34075V13.3313Z" fill="#000001"/>
<path d="M5.34075 10.4749H4.39075V11.4249H5.34075V10.4749Z" fill="#000001"/>
<path d="M5.34045 19.0437H3.4342V20H5.34045V19.0437Z" fill="#000001"/>
<path d="M4.39045 15.2375H3.4342V17.1438H4.39045V15.2375Z" fill="#000001"/>
<path d="M4.39026 9.51855H2.48401V10.4748H4.39026V9.51855Z" fill="#000001"/>
<path d="M3.43401 17.144H2.48401V19.044H3.43401V17.144Z" fill="#000001"/>
<path d="M7.24695 6.6626H1.5282V7.61885H7.24695V6.6626Z" fill="#000001"/>
<path d="M2.48445 8.5686H1.5282V9.5186H2.48445V8.5686Z" fill="#000001"/>
<path d="M1.52812 7.6189H0.578125V8.5689H1.52812V7.6189Z" fill="#000001"/>
</svg>
