<svg width="23" height="24" viewBox="0 0 23 24" fill="none" xmlns="http://www.w3.org/2000/svg">
<path d="M23.0044 9.85889H21.8644V14.4264H23.0044V9.85889Z" fill="#5A3822"/>
<path d="M7.00689 9.85859H8.14689V8.71109H9.29439V7.57109H13.8619V8.71109H15.0094V7.57109H18.4369V8.71109H19.5769V17.8536H20.7244V15.5736H21.8644V14.4261H20.7244V9.85859H21.8644V8.71109H20.7244V4.14359H19.5769V5.28359H18.4369V4.14359H16.1494V2.99609H8.14689V4.14359H7.00689V5.28359H5.86689V7.57109H4.71939V4.14359H3.57939V7.57109H2.43939V8.71109H7.00689V9.85859Z" fill="#5A3822"/>
<path d="M19.5769 17.854H18.4369V19.0015H19.5769V17.854Z" fill="#5A3822"/>
<path d="M19.5769 2.99609H18.4369V4.14359H19.5769V2.99609Z" fill="#5A3822"/>
<path d="M18.4369 15.5737H17.2894V16.7137H18.4369V15.5737Z" fill="#5A3822"/>
<path d="M18.4369 12.1387H17.2894V14.4262H18.4369V12.1387Z" fill="#5A3822"/>
<path d="M18.4369 1.85645H17.2894V2.99645H18.4369V1.85645Z" fill="#5A3822"/>
<path d="M8.14688 19.0015V21.2927H5.86688V22.4327H3.57938V23.5727H21.8644V22.4327H19.5769V21.2927H17.2894V20.1452H18.4369V19.0052L8.14688 19.0015ZM16.1494 22.429H11.5819V21.2927H9.29438V20.1452H16.1531L16.1494 22.429Z" fill="#5A3822"/>
<path d="M17.2894 16.7139H13.8619V17.8539H17.2894V16.7139Z" fill="#5A3822"/>
<path d="M13.8619 15.5737H12.7219V16.7137H13.8619V15.5737Z" fill="#5A3822"/>
<path d="M12.7219 12.1387H11.5819V14.4262H12.7219V12.1387Z" fill="#5A3822"/>
<path d="M13.8619 8.71143H11.5819V9.85893H13.8619V8.71143Z" fill="#5A3822"/>
<path d="M9.29438 9.85889H8.14688V14.4264H9.29438V9.85889Z" fill="#5A3822"/>
<path d="M17.2894 0.716309H7.0069V1.85631H17.2894V0.716309Z" fill="#5A3822"/>
<path d="M8.1469 17.854H7.0069V19.0015H8.1469V17.854Z" fill="#5A3822"/>
<path d="M8.1469 14.4263H7.0069V15.5738H8.1469V14.4263Z" fill="#5A3822"/>
<path d="M2.43939 15.5737V16.7137H5.86689V17.8537H7.00689V15.5737H2.43939Z" fill="#5A3822"/>
<path d="M7.00688 1.85645H5.86688V2.99645H7.00688V1.85645Z" fill="#5A3822"/>
<path d="M5.86689 2.99609H4.71939V4.14359H5.86689V2.99609Z" fill="#5A3822"/>
<path d="M4.71938 9.85889H3.57938V10.9989H4.71938V9.85889Z" fill="#5A3822"/>
<path d="M3.57939 10.999H2.43939V13.2865H3.57939V10.999Z" fill="#5A3822"/>
<path d="M2.4394 14.4263H1.2919V15.5738H2.4394V14.4263Z" fill="#5A3822"/>
<path d="M2.4394 8.71143H1.2919V9.85893H2.4394V8.71143Z" fill="#5A3822"/>
<path d="M1.29189 9.85889H0.151886V14.4264H1.29189V9.85889Z" fill="#5A3822"/>
</svg>
